<?xml version="1.0" standalone="no"?>
<!DOCTYPE svg PUBLIC "-//W3C//DTD SVG 20010904//EN"
 "http://www.w3.org/TR/2001/REC-SVG-20010904/DTD/svg10.dtd">
<svg version="1.0" xmlns="http://www.w3.org/2000/svg"
 width="300.000000pt" height="335.000000pt" viewBox="0 0 300.000000 335.000000"
 preserveAspectRatio="xMidYMid meet">
<metadata>
Created by potrace 1.10, written by Peter Selinger 2001-2011
</metadata>
<g transform="translate(0.000000,335.000000) scale(0.100000,-0.100000)"
fill="#000000" stroke="none">
<path d="M1410 3206 c-163 -40 -310 -128 -432 -260 l-57 -61 -1 70 c-1 90 -10
158 -21 170 -5 5 -9 -69 -9 -183 0 -106 2 -192 5 -192 3 0 21 32 41 72 86 171
301 323 510 359 131 23 302 -4 429 -68 101 -52 217 -156 284 -255 l32 -48 42
27 c23 15 56 38 73 50 16 12 67 40 113 61 46 22 77 42 69 44 -23 9 -93 -20
-190 -77 -49 -29 -95 -52 -102 -49 -7 3 -20 18 -30 34 -23 39 -131 147 -187
186 -118 84 -247 125 -404 130 -69 2 -130 -2 -165 -10z"/>
<path d="M828 3118 c-17 -30 -17 -400 0 -440 20 -50 28 -30 20 50 -5 42 -8
152 -6 245 2 92 2 167 1 167 -1 0 -8 -10 -15 -22z"/>
<path d="M1425 3102 c-143 -37 -244 -99 -355 -219 -63 -68 -173 -253 -151
-253 10 0 91 103 91 115 0 4 9 18 20 32 27 35 25 21 -4 -32 -62 -110 -60 -71
-63 -990 -4 -957 -6 -933 74 -1087 98 -191 277 -300 493 -300 59 -1 122 6 165
17 173 44 325 173 400 338 53 117 53 120 54 988 l1 806 -24 91 c-24 93 -51
148 -115 237 -56 77 -134 136 -241 182 -40 17 -47 22 -25 19 87 -11 252 -137
341 -258 51 -69 64 -74 123 -43 64 32 68 32 37 -6 -25 -30 -26 -34 -26 -178 0
-144 1 -148 25 -171 29 -27 28 -28 169 52 48 27 90 47 93 45 2 -3 5 -509 6
-1126 l2 -1120 22 -23 23 -22 42 21 c24 11 75 44 113 73 39 28 82 59 97 68 14
8 31 25 37 36 16 34 21 362 22 1528 0 754 -3 1102 -10 1116 -24 45 -55 36
-226 -63 -330 -191 -375 -215 -300 -157 22 17 43 32 48 32 10 0 125 79 133 91
17 28 -15 16 -108 -41 -57 -35 -134 -80 -172 -102 -38 -21 -75 -43 -82 -48 -8
-8 -13 -4 -18 12 -8 33 -102 147 -166 202 -59 52 -142 98 -230 128 -81 28
-227 33 -315 10z m1415 -1381 l0 -1319 -77 -47 c-43 -26 -105 -64 -138 -85
-33 -21 -64 -39 -68 -39 -4 -1 -6 526 -5 1169 2 644 0 1170 -4 1170 -4 0 -10
-5 -13 -10 -12 -20 -255 -160 -277 -160 -2 0 -3 67 -3 150 1 119 4 153 15 164
23 20 548 326 562 326 4 0 8 -594 8 -1319z m-1091 1274 c168 -69 289 -201 344
-372 21 -67 22 -80 25 -891 2 -531 -1 -844 -8 -880 -15 -87 -82 -213 -152
-287 -46 -50 -81 -75 -148 -109 -114 -57 -193 -71 -315 -56 -246 31 -421 182
-480 417 -14 54 -15 171 -13 925 l3 863 26 61 c59 138 145 233 268 298 99 52
167 66 286 62 79 -4 113 -10 164 -31z"/>
<path d="M2754 2848 l-49 -113 -2 -1200 c-2 -951 0 -1196 10 -1180 9 15 12
287 14 1191 l2 1171 35 94 c67 181 61 201 -10 37z"/>
<path d="M2545 2649 c-139 -80 -223 -136 -234 -158 -18 -33 -12 -36 17 -9 27
26 254 168 267 168 4 0 0 -11 -9 -25 -25 -38 -19 -42 12 -9 27 27 52 65 52 78
0 12 -19 4 -105 -45z"/>
<path d="M1697 2855 c142 -64 220 -146 263 -273 20 -62 21 -74 18 -890 l-3
-827 -36 -75 c-64 -134 -177 -217 -327 -241 -51 -8 -70 -15 -63 -22 6 -6 11
-31 11 -55 0 -26 4 -41 10 -37 6 3 10 24 10 45 0 38 0 38 50 49 28 6 58 11 66
11 54 0 190 102 240 181 69 108 66 72 68 983 1 796 0 823 -19 881 -30 89 -70
150 -128 197 -58 46 -161 98 -192 97 -12 0 1 -10 32 -24z"/>
<path d="M1446 2829 c-109 -37 -191 -111 -244 -219 l-27 -55 0 -845 0 -845 23
-60 c23 -60 87 -146 123 -165 30 -17 22 1 -22 50 -59 64 -89 135 -98 229 -5
44 -8 426 -7 848 l1 768 34 68 c39 77 113 152 188 188 30 15 82 27 147 34 82
9 95 12 67 18 -58 12 -124 7 -185 -14z"/>
<path d="M1475 2740 c-71 -28 -119 -72 -152 -138 l-28 -57 -3 -820 c-3 -928
-6 -885 75 -975 75 -84 162 -108 281 -78 53 13 117 71 154 140 l23 43 0 850
c0 814 -1 851 -19 885 -74 137 -209 199 -331 150z m171 -43 c16 -9 43 -28 59
-43 31 -27 30 -27 -50 26 -38 25 -37 25 -70 -6 -26 -24 -27 -29 -21 -87 3 -34
8 -456 12 -937 3 -481 10 -879 14 -884 10 -10 18 1332 10 1669 -3 121 -2 224
1 228 9 12 72 -29 99 -65 l25 -33 2 -820 c1 -451 -1 -839 -3 -862 -6 -47 -39
-94 -89 -124 -36 -23 -16 -25 25 -4 16 8 40 34 54 58 31 55 34 112 42 1022 5
605 4 706 -9 742 -19 55 -6 47 22 -13 22 -45 22 -47 21 -856 0 -519 -4 -824
-10 -848 -13 -50 -91 -135 -136 -150 -20 -7 -63 -12 -97 -11 -48 0 -70 6 -106
29 -51 31 -96 89 -111 143 -6 24 -9 319 -7 850 l3 814 29 53 c34 61 57 84 111
112 46 24 132 22 180 -3z"/>
<path d="M1434 2651 c-74 -54 -69 -2 -66 -820 2 -405 7 -796 11 -869 l8 -133
39 -40 c21 -21 45 -39 53 -39 8 0 -4 19 -31 46 -42 42 -46 49 -50 107 -3 34
-5 423 -4 865 l1 804 50 46 c49 47 49 47 56 22 4 -14 7 -441 8 -949 1 -508 3
-922 5 -920 4 4 13 188 21 414 3 77 6 433 7 791 2 603 1 653 -15 678 -22 34
-44 33 -93 -3z"/>
<path d="M659 3025 c-36 -18 -82 -44 -100 -57 -19 -13 -95 -59 -168 -103 -162
-97 -212 -134 -227 -164 -8 -15 -11 -70 -9 -158 2 -111 6 -137 21 -154 9 -10
24 -19 33 -19 9 0 58 23 110 50 51 28 95 50 96 50 7 0 2 -309 -6 -321 -4 -8
-8 34 -8 97 -1 124 -3 134 -32 153 -19 11 -29 8 -93 -35 -71 -49 -141 -113
-132 -122 3 -2 21 9 41 26 19 18 50 39 68 48 17 9 48 30 68 45 20 16 40 29 43
29 9 0 6 -2049 -4 -2180 -4 -63 -6 -117 -4 -119 2 -2 8 7 13 21 17 46 28 374
30 941 1 81 5 147 10 147 5 0 8 -211 8 -484 -1 -464 0 -484 19 -507 12 -15 27
-23 39 -21 33 7 246 139 281 174 l23 23 3 1323 c3 1301 3 1324 -16 1338 -27
19 -32 18 -107 -21z m91 -1323 l0 -1329 -67 -35 c-38 -19 -86 -46 -108 -60
-22 -14 -58 -34 -81 -46 l-41 -21 3 1169 2 1169 -57 -39 c-31 -21 -83 -53
-116 -70 -33 -17 -64 -36 -70 -41 -21 -21 -25 -1 -25 144 l0 154 228 138 c125
77 247 152 272 167 25 15 48 28 53 28 4 0 7 -598 7 -1328z m-332 -392 c0 -50
-3 -92 -8 -95 -8 -5 -11 164 -3 178 10 16 11 3 11 -83z"/>
<path d="M693 2888 c-18 -40 -43 -98 -55 -128 l-23 -55 -2 -1195 c-2 -779 1
-1189 7 -1179 6 11 11 448 13 1180 3 1306 -6 1142 72 1357 35 99 27 112 -12
20z"/>
<path d="M458 2637 c-140 -74 -228 -142 -228 -176 0 -11 7 -8 26 12 29 31 155
117 173 117 6 0 11 4 11 8 0 5 12 14 26 21 25 11 26 11 20 -14 -10 -39 11 -30
34 15 32 63 28 64 -62 17z"/>
<path d="M320 2941 c-72 -22 -197 -111 -185 -132 3 -4 26 7 51 26 25 19 74 51
109 71 78 43 85 53 25 35z"/>
<path d="M262 2845 c-117 -70 -143 -98 -71 -73 19 6 41 16 49 23 8 6 35 23 60
37 45 26 112 88 94 88 -5 0 -64 -34 -132 -75z"/>
<path d="M839 2421 c-21 -17 -25 -30 -30 -108 -6 -106 -3 -609 8 -1163 4 -223
8 -481 9 -575 0 -93 2 -179 5 -190 2 -11 6 441 9 1005 l5 1024 25 13 c16 8 19
13 9 13 -9 0 -27 -9 -40 -19z"/>
<path d="M913 1625 l2 -810 24 -63 c52 -140 172 -281 306 -359 183 -106 357
-117 555 -36 113 46 199 109 261 191 50 67 127 208 117 217 -3 3 -20 -24 -37
-60 -18 -36 -47 -84 -64 -108 -18 -23 -40 -54 -50 -69 -20 -31 -101 -93 -167
-127 -158 -81 -310 -98 -465 -51 -68 20 -138 54 -156 76 -6 8 -17 14 -25 14
-23 0 -129 107 -182 183 -28 40 -61 102 -73 138 -22 61 -23 76 -21 364 5 1289
6 1267 -13 1291 -13 17 -14 -72 -12 -791z"/>
<path d="M2385 2387 c-139 -82 -215 -150 -215 -193 0 -11 9 -37 20 -59 18 -36
19 -40 4 -57 -26 -28 -28 -84 -4 -108 24 -24 24 -29 6 -49 -24 -27 -25 -92 -2
-123 18 -26 18 -29 3 -46 -21 -23 -22 -90 -2 -116 12 -16 12 -20 -1 -33 -19
-19 -18 -78 2 -109 15 -23 15 -26 0 -43 -21 -24 -20 -59 3 -95 19 -29 19 -30
0 -54 -10 -14 -19 -35 -19 -48 0 -28 20 -74 32 -74 13 0 9 -20 -7 -36 -17 -17
-22 -109 -5 -99 6 3 10 26 10 50 l0 44 123 3 c94 2 121 6 119 16 -1 7 7 25 18
39 24 31 27 95 5 113 -8 7 -15 18 -15 25 0 7 7 15 15 19 20 7 20 75 0 102 -12
19 -12 24 0 40 19 25 19 74 -1 102 -14 21 -14 25 0 47 20 31 21 89 1 105 -8 7
-15 18 -15 25 0 7 7 18 15 25 20 16 19 80 -1 108 -14 21 -14 25 0 47 20 31 21
99 1 119 -19 19 -19 35 1 57 24 27 21 215 -4 249 -25 33 -40 34 -87 7z m75
-133 l0 -124 -124 1 -124 1 -5 42 c-3 28 1 47 12 59 25 29 222 158 232 151 5
-3 9 -61 9 -130z m0 -240 c0 -48 -2 -55 -17 -50 -10 3 -66 6 -125 8 -92 3
-108 5 -108 19 0 9 -3 31 -6 48 l-6 31 131 0 131 0 0 -56z m-67 -111 l67 -6 0
-46 0 -46 -127 3 -128 3 -1 50 -1 49 61 0 c34 0 91 -3 129 -7z m67 -203 l0
-50 -124 0 -124 0 -4 45 -3 44 125 4 c69 1 126 4 128 5 1 1 2 -20 2 -48z m0
-156 l0 -47 -61 7 c-34 3 -92 6 -128 6 l-67 0 4 40 4 40 124 0 124 0 0 -46z
m0 -134 l0 -50 -131 0 c-115 0 -130 2 -125 16 3 9 6 29 6 45 l0 28 123 4 c67
1 123 4 125 5 1 1 2 -20 2 -48z m6 -116 c-3 -9 -6 -33 -6 -55 l0 -39 -127 0
-128 0 3 50 4 49 91 4 c51 1 109 4 131 5 31 2 37 -1 32 -14z"/>
<path d="M289 2293 c-1 -5 -3 -40 -4 -79 -1 -40 -6 -77 -9 -83 -4 -6 -22 -10
-40 -8 -17 2 -41 0 -51 -4 -14 -5 -3 -8 31 -8 60 -1 64 -6 64 -89 0 -79 -8
-102 -34 -102 -16 -1 -13 -4 13 -15 23 -11 31 -20 27 -31 -3 -9 -6 -29 -6 -45
0 -27 -3 -29 -42 -31 -41 -1 -41 -1 -8 -5 19 -3 38 -7 42 -11 3 -4 9 -254 13
-557 3 -302 8 -680 10 -838 2 -159 6 -291 9 -294 3 -4 6 492 6 1100 0 731 -3
1107 -10 1107 -5 0 -11 -3 -11 -7z"/>
<path d="M2467 1134 c-4 -4 -7 -34 -7 -67 0 -67 7 -69 21 -8 9 39 0 88 -14 75z"/>
<path d="M2205 1020 c8 -13 205 -13 225 0 10 7 -25 10 -108 10 -80 0 -121 -4
-117 -10z"/>
<path d="M2295 980 c-72 -5 -81 -7 -92 -30 -15 -30 -17 -84 -3 -75 6 3 10 24
10 46 l0 39 68 1 c68 1 180 14 152 18 -35 6 -59 6 -135 1z"/>
<path d="M2461 635 c1 -205 5 -322 10 -295 11 65 11 602 -1 620 -6 10 -9 -102
-9 -325z"/>
<path d="M2216 850 c5 -5 47 -10 94 -12 81 -3 85 -4 84 -25 0 -13 3 -23 8 -23
4 0 8 1 8 3 0 1 4 17 9 35 l10 32 -112 0 c-70 0 -108 -3 -101 -10z"/>
<path d="M2186 595 c-56 -113 -173 -228 -286 -282 -150 -71 -179 -78 -335 -77
-132 0 -145 2 -224 32 -178 67 -293 156 -387 299 -30 46 -57 83 -59 83 -3 0
-5 -21 -4 -47 0 -27 3 -42 6 -35 8 21 19 13 61 -46 157 -224 486 -353 757
-297 111 23 277 111 353 187 60 61 142 170 142 190 0 6 9 23 21 39 15 22 17
29 6 29 -8 0 -31 -34 -51 -75z"/>
<path d="M2330 663 c70 -7 70 -8 66 -157 -2 -72 0 -144 4 -161 4 -18 8 43 9
148 l1 177 -62 -2 c-54 -1 -56 -2 -18 -5z"/>
</g>
</svg>
